HIERARCHY
ROOT Hips
{
	OFFSET -0.179506 -22.333345 2.821913
	CHANNELS 6 Xposition Yposition Zposition Zrotation Yrotation Xrotation 
	JOINT LeftUpLeg
	{
		OFFSET 6.951974 -9.140623 -0.681533
		CHANNELS 3 Zrotation Yrotation Xrotation
		JOINT LeftLeg
		{
			OFFSET 3.427654 -37.519855 -0.449580
			CHANNELS 3 Zrotation Yrotation Xrotation
			JOINT LeftFoot
			{
				OFFSET -1.359570 -39.796059 -4.369333
				CHANNELS 3 Zrotation Yrotation Xrotation
				JOINT LeftToe
				{
					OFFSET 2.635814 -5.579078 11.928840
					CHANNELS 3 Zrotation Yrotation Xrotation
					End Site
					{
						OFFSET 0.000000 0.000000 0.000000
					}
				}
			}
		}
	}
	JOINT RightUpLeg
	{
		OFFSET -6.767048 -9.052170 -0.431982
		CHANNELS 3 Zrotation Yrotation Xrotation
		JOINT RightLeg
		{
			OFFSET -3.829005 -38.256897 -0.885003
			CHANNELS 3 Zrotation Yrotation Xrotation
			JOINT RightFoot
			{
				OFFSET 1.577377 -39.841461 -4.231180
				CHANNELS 3 Zrotation Yrotation Xrotation
				JOINT RightToe
				{
					OFFSET -2.537174 -4.814398 12.334795
					CHANNELS 3 Zrotation Yrotation Xrotation
					End Site
					{
						OFFSET 0.000000 0.000000 0.000000
					}
				}
			}
		}
	}
	JOINT Spine
	{
		OFFSET -0.253288 10.896323 -2.669631
		CHANNELS 3 Zrotation Yrotation Xrotation
		JOINT Spine1
		{
			OFFSET 0.548704 13.518043 0.109247
			CHANNELS 3 Zrotation Yrotation Xrotation
			JOINT Spine2
			{
				OFFSET 0.145701 5.292222 2.542457
				CHANNELS 3 Zrotation Yrotation Xrotation
				JOINT Neck
				{
					OFFSET -0.277840 21.387037 -4.285703
					CHANNELS 3 Zrotation Yrotation Xrotation
					JOINT Head
					{
						OFFSET 0.515184 6.496960 5.134897
						CHANNELS 3 Zrotation Yrotation Xrotation
						End Site
						{
							OFFSET 0.000000 0.000000 0.000000
						}
					}
				}
				JOINT LeftShoulder
				{
					OFFSET 7.884473 12.174932 -3.408961
					CHANNELS 3 Zrotation Yrotation Xrotation
					JOINT LeftArm
					{
						OFFSET 9.097692 3.046888 -0.886815
						CHANNELS 3 Zrotation Yrotation Xrotation
						JOINT LeftForeArm
						{
							OFFSET 25.961220 -1.277207 -2.745643
							CHANNELS 3 Zrotation Yrotation Xrotation
							JOINT LeftHand
							{
								OFFSET 24.923361 0.898606 -0.117091
								CHANNELS 3 Zrotation Yrotation Xrotation
								End Site
								{
									OFFSET 0.000000 0.000000 0.000000
								}
							}
						}
					}
				}
				JOINT RightShoulder
				{
					OFFSET -8.175920 11.883285 -3.861528
					CHANNELS 3 Zrotation Yrotation Xrotation
					JOINT RightArm
					{
						OFFSET -9.601238 3.255117 -0.914307
						CHANNELS 3 Zrotation Yrotation Xrotation
						JOINT RightForeArm
						{
							OFFSET -25.374195 -1.332924 -2.140099
							CHANNELS 3 Zrotation Yrotation Xrotation
							JOINT RightHand
							{
								OFFSET -25.529810 0.777228 -0.555919
								CHANNELS 3 Zrotation Yrotation Xrotation
								End Site
								{
									OFFSET 0.000000 0.000000 0.000000
								}
							}
						}
					}
				}
			}
		}
	}
}
MOTION
Frames: 18
Frame Time: 0.033333
1.535561 -2.658110 89.649330 -111.567943 2.577862 84.599817 18.331155 9.671138 -5.149935 -7.526144 -1.730249 27.462646 -0.264926 12.373746 -25.433780 nan nan nan -15.927634 -14.002825 -10.662597 2.995601 -10.980216 23.555042 4.706270 -8.013153 -11.268164 nan nan nan -5.167662 0.387900 2.596097 6.348507 -7.262942 11.411952 0.827292 -0.851971 -4.196379 1.723696 -18.674783 17.423482 6.279896 -14.520303 12.257030 -20.627599 -11.140157 6.965442 -41.763358 -37.789199 10.325242 83.208323 -72.011820 -46.489107 26.794996 -17.279847 15.686476 19.547049 8.292433 0.304466 29.988367 18.829488 -13.328182 -75.269120 48.534944 -51.258114 -28.165297 12.333633 6.152563 
1.551277 -2.752969 89.711510 -111.557811 2.569779 84.749831 18.202210 9.567768 -5.298845 -7.660011 -1.865980 27.589605 -0.180324 12.454404 -25.757475 nan nan nan -15.834516 -13.952288 -11.020130 3.098853 -10.896078 23.739874 4.699534 -7.979722 -11.137011 nan nan nan -5.221680 0.372663 2.387211 6.324940 -7.289514 11.538941 0.809896 -0.826130 -4.384918 1.702008 -18.837722 17.241430 6.372336 -14.445229 12.464891 -21.060027 -11.334425 7.106533 -41.143572 -37.577826 10.112653 83.861058 -72.253130 -47.155483 26.671332 -17.358019 16.039478 19.806978 8.467059 0.428916 29.707323 18.639688 -13.412559 -75.048595 48.452205 -51.096675 -28.089972 12.401854 6.401002 
1.520621 -2.844254 89.754143 -111.395461 2.842936 84.693627 18.586933 8.366462 -4.967352 -6.997720 0.236191 27.162129 0.080094 10.751480 -25.984505 nan nan nan -15.779657 -13.579402 -10.607597 2.918654 -12.445733 23.388087 4.720886 -6.440581 -10.600468 nan nan nan -6.580278 1.504532 1.338912 7.928461 -7.098556 14.969213 1.880296 -0.412034 -6.982825 2.745096 -18.340459 16.799378 6.041755 -17.570235 11.890516 -17.119964 -10.820107 5.891310 -51.221511 -44.787519 22.904079 177.016984 -71.990484 -139.254642 -0.200749 -14.599219 15.389275 18.718617 6.750276 0.496225 29.044536 18.061740 -11.114162 -80.670173 47.421509 -62.189644 2.282678 7.573236 -3.775009 
1.515871 -2.900457 89.777893 -111.372578 2.843582 84.745875 18.525108 8.403229 -5.005288 -6.948999 0.259209 27.122458 0.121981 10.713295 -26.023811 nan nan nan -15.729620 -13.538192 -10.682641 2.912982 -12.454554 23.351359 4.690632 -6.418586 -10.581272 nan nan nan -6.620195 1.497013 1.204313 7.925477 -7.140672 15.138181 1.887572 -0.395306 -7.141983 2.687012 -18.325806 16.739165 6.129096 -17.544005 11.791763 -17.263591 -10.931146 5.979792 -50.947974 -44.781735 22.663779 176.475385 -71.499946 -139.301757 -1.377223 -14.309983 14.713876 18.767260 6.897104 0.651148 28.860300 18.020983 -11.190190 -80.610393 47.322192 -62.420040 2.807541 7.445315 -3.985534 
1.506350 -2.913195 89.842857 -111.245137 3.124118 85.080089 18.779822 8.437830 -5.442734 -7.024972 0.327219 27.193663 0.107712 10.690827 -25.986995 nan nan nan -15.339321 -13.494163 -10.907773 2.885022 -12.613284 23.278233 4.572103 -6.553270 -10.886277 nan nan nan -7.011996 2.132983 1.512233 8.508626 -6.562626 14.261722 2.528227 -0.220126 -7.594331 2.962086 -19.218019 16.820102 5.889417 -18.303374 12.063445 -16.891406 -10.612862 4.921163 -54.012777 -45.033622 25.429912 177.791659 -72.622829 -140.038448 -1.980764 -14.148237 14.840191 18.492628 5.666510 -1.148271 28.812205 16.459198 -10.360201 -80.477961 47.908219 -62.450390 3.514042 7.540108 -4.280331 
1.524522 -2.860665 89.867569 -111.201379 3.103263 85.010268 18.888547 8.547507 -5.396352 -7.084500 0.590103 27.276445 -0.017639 10.364428 -25.845807 nan nan nan -15.338784 -13.480065 -10.778738 2.701849 -12.565238 23.355191 3.514483 -6.286736 -12.046058 nan nan nan -7.067470 2.455545 1.662100 8.594862 -6.283651 14.367857 2.459640 -0.274351 -8.100748 2.869042 -19.461667 17.359160 5.708569 -18.573788 12.407664 -16.751123 -9.436429 5.373020 -55.923160 -46.335675 27.163966 175.778434 -72.793087 -139.480918 -4.479693 -13.951568 13.656930 18.488365 4.542530 -1.063600 29.073280 17.017507 -10.067823 -80.720931 47.622704 -62.618064 5.384466 7.573254 -4.330843 
1.536541 -2.855865 89.889015 -111.216319 3.102170 85.002680 18.904847 8.610798 -5.399264 -7.108896 0.642639 27.322227 -0.036428 10.342232 -25.765022 nan nan nan -15.287342 -13.386395 -10.730064 2.674256 -12.400806 23.291419 3.523090 -6.342257 -12.188593 nan nan nan -7.075369 2.433022 1.648225 8.585717 -6.312127 14.400417 2.435735 -0.286831 -8.116010 2.891269 -19.463473 17.472280 5.724114 -18.563300 12.365586 -16.680343 -9.261456 5.449175 -55.905285 -46.434447 27.120958 175.785926 -72.754668 -139.644795 -4.458056 -13.804187 13.557208 18.457654 4.466265 -0.933879 29.134403 17.216728 -10.046785 -80.651437 47.678766 -62.457747 5.152164 7.419790 -4.188283 
1.542751 -2.858740 89.879364 -111.253643 3.194193 84.727868 19.100264 8.557148 -5.014577 -7.132744 0.648687 27.171354 -0.157793 10.072046 -25.674921 nan nan nan -15.247586 -13.100012 -10.261860 2.615799 -12.681476 23.038070 3.231059 -6.162492 -12.210403 nan nan nan -7.741916 3.099684 1.612867 9.231576 -6.314174 14.645577 2.932162 -0.187290 -7.728116 2.792537 -19.879434 17.159805 6.428233 -18.787680 11.587881 -16.266537 -9.899241 5.753861 -58.653340 -46.745762 28.807072 160.976324 -73.210312 -133.662886 -9.698184 -19.542287 -3.133606 17.992968 4.369887 -1.912718 28.984022 16.622192 -9.839745 -80.800889 47.471271 -62.822038 6.728788 7.603694 -5.131509 
1.530810 -2.891535 89.874176 -111.317729 3.206835 84.730463 19.090653 8.513874 -4.949138 -7.116146 0.668027 27.052708 -0.224270 10.079194 -25.640300 nan nan nan -15.239297 -13.088187 -10.258881 2.606872 -12.759145 22.988613 3.214238 -6.225346 -12.143073 nan nan nan -7.689685 3.121923 1.638374 9.230609 -6.262162 14.577220 2.910591 -0.179757 -7.688625 2.838272 -19.907945 17.120977 6.400072 -18.858884 11.550932 -16.065017 -9.833587 5.717250 -59.069014 -46.708002 29.079133 160.906535 -73.156162 -133.502269 -9.748487 -19.545020 -3.465955 17.845931 4.306590 -2.014762 29.201792 16.629662 -9.732223 -80.857402 47.431489 -62.678024 6.921823 7.537046 -5.197367 
1.539406 -2.910109 89.870644 -111.344717 3.202480 84.774133 19.069962 8.474237 -5.000021 -7.120799 0.692629 27.060834 -0.236891 10.128246 -25.657433 nan nan nan -15.263959 -13.108141 -10.341753 2.656890 -12.909999 23.017567 3.308555 -6.269951 -12.070736 nan nan nan -7.652697 3.129975 1.598323 9.205291 -6.242217 14.579849 2.897451 -0.177388 -7.729967 2.850984 -19.915371 17.095103 6.362856 -18.882124 11.558433 -16.044808 -9.830701 5.697632 -59.145152 -46.662815 29.099017 160.902625 -73.147073 -133.446637 -9.835287 -19.670933 -3.505021 17.745055 4.335328 -2.098586 29.390562 16.499471 -9.655414 -80.944147 47.393651 -62.771600 7.101854 7.717536 -5.463003 
1.563876 -2.899002 89.885460 -111.346239 3.207855 84.803806 19.102862 8.471463 -5.066971 -7.178646 0.651332 27.109420 -0.173820 10.217851 -25.671056 nan nan nan -15.228692 -13.122766 -10.349539 2.705304 -12.881190 22.994297 3.481343 -6.312547 -12.144898 nan nan nan -7.785982 3.219233 1.526935 9.280220 -6.257911 14.624045 3.006062 -0.162805 -7.725482 2.702199 -20.130333 17.140968 6.441272 -18.784393 11.525287 -16.196034 -9.858655 5.877938 -59.366015 -46.436947 29.426570 161.142698 -73.277641 -134.693210 -8.538784 -19.695140 -4.547776 17.832332 4.300537 -2.192787 29.191903 16.355949 -9.709983 -80.909310 47.541724 -63.064669 6.661330 7.932145 -5.608126 
1.579526 -2.874768 89.907761 -111.358515 3.205657 84.791975 19.130771 8.505063 -5.063332 -7.212386 0.590912 27.111683 -0.035058 10.331506 -25.640640 nan nan nan -15.191285 -13.121894 -10.291632 2.715598 -12.687773 22.922612 3.456452 -6.321956 -12.330498 nan nan nan -7.910688 3.302545 1.567842 9.365063 -6.249873 14.506567 3.122824 -0.145847 -7.661945 2.422200 -20.318473 17.318687 6.609829 -18.596912 11.436929 -16.281987 -9.798480 6.044536 -59.523031 -46.379703 29.790192 161.366396 -73.589038 -135.909015 -7.300404 -19.706058 -6.289000 17.903779 4.177896 -2.231827 28.999500 16.356494 -9.825158 -80.766926 47.690532 -63.253220 6.410880 8.087806 -5.694079 
1.577735 -2.873747 89.921158 -111.355135 3.189507 84.825526 19.075292 8.498840 -5.104625 -7.090467 0.673754 27.098646 0.010778 10.273597 -25.652098 nan nan nan -15.195310 -13.123615 -10.296276 2.597134 -12.793711 22.964811 4.060011 -6.308021 -12.086856 nan nan nan -7.826447 3.205773 1.647957 9.288652 -6.269184 14.266694 3.097340 -0.164637 -7.613605 2.227563 -20.163463 17.549817 6.747013 -18.526469 11.349422 -16.370094 -9.632550 5.939885 -59.500027 -46.152102 29.778822 161.640731 -73.540321 -136.215155 -7.445700 -19.804568 -6.160335 17.965768 4.255071 -2.065528 28.998611 16.395777 -9.890084 -80.786259 47.711468 -63.420543 6.630964 8.202452 -5.583110 
1.559441 -2.888849 89.924225 -111.357085 3.190143 84.805529 19.055551 8.487008 -5.070889 -7.065342 0.670958 27.078207 0.020437 10.260792 -25.672630 nan nan nan -15.205472 -13.155190 -10.277977 2.595085 -12.822050 22.988947 4.034665 -6.276556 -12.130921 nan nan nan -7.724262 3.139443 1.738572 9.246795 -6.274029 14.153144 3.039739 -0.189602 -7.632992 2.157999 -20.106888 17.632360 6.711613 -18.566432 11.381497 -16.368672 -9.479045 5.862927 -59.595806 -46.063498 29.879054 161.582466 -73.533161 -136.072266 -7.559916 -19.954270 -6.188661 18.017885 4.273109 -1.960620 29.013297 16.469029 -9.863640 -80.751832 47.669110 -63.182506 6.771059 8.245551 -5.234133 
1.552832 -2.895386 89.919815 -111.393306 3.185933 84.776947 19.063039 8.488994 -4.999979 -7.080863 0.649414 27.018428 0.069496 10.279433 -25.675810 nan nan nan -15.205233 -13.124889 -10.253487 2.659470 -12.736436 22.936592 3.799901 -6.285364 -12.219246 nan nan nan -7.691339 3.127617 1.811269 9.242207 -6.244505 14.093510 3.004906 -0.206403 -7.626172 2.224423 -20.097229 17.626319 6.621302 -18.667101 11.375107 -16.200745 -9.426245 5.761593 -59.778718 -46.019095 30.121123 161.231723 -73.608381 -135.540078 -7.363320 -20.132249 -6.602951 17.958959 4.250530 -2.029411 29.189358 16.485206 -9.636647 -80.721333 47.534476 -62.812841 6.662248 8.228900 -5.361986 
1.561848 -2.893652 89.917114 -111.428569 3.168015 84.747857 19.051959 8.495475 -4.939687 -7.065146 0.663044 26.968088 0.084444 10.255685 -25.668602 nan nan nan -15.220436 -13.115977 -10.216958 2.584884 -12.738832 22.914105 3.977764 -6.328793 -12.152703 nan nan nan -7.703995 3.139136 1.881936 9.235065 -6.226951 14.014634 3.004707 -0.208651 -7.580228 2.248527 -20.079854 17.638803 6.618970 -18.687919 11.365438 -16.081401 -9.421208 5.646187 -59.927468 -45.935644 30.322992 160.893337 -73.659397 -135.096032 -7.189370 -20.241216 -6.980833 17.906787 4.276614 -2.132670 29.338121 16.465855 -9.444946 -80.743781 47.408531 -62.759567 6.627719 8.160546 -5.725131 
1.582159 -2.859451 89.901329 -111.478498 3.129216 84.598163 19.097217 8.500348 -4.732419 -7.083010 0.693732 26.899664 0.273412 10.181577 -25.601503 nan nan nan -15.280138 -13.120463 -10.101231 2.596354 -12.704390 22.941806 3.552524 -6.158140 -12.330442 nan nan nan -7.723641 3.027508 2.134097 9.222418 -6.370956 15.379383 2.796596 -0.007618 -9.178536 2.773174 -19.835649 17.218785 6.058237 -18.992558 11.886685 -15.691274 -8.610632 5.528451 -60.814606 -46.174318 31.258422 160.284785 -73.638965 -134.456593 -7.762299 -20.326676 -6.812608 18.089902 3.842071 -1.977753 29.513276 17.139771 -8.754679 -80.770291 46.867676 -62.587119 7.079106 8.295374 -5.713108 
1.597096 -2.846938 89.897171 -111.481375 3.127259 84.593731 19.108256 8.511827 -4.738300 -7.109139 0.696324 26.906737 0.250671 10.166922 -25.572865 nan nan nan -15.290245 -13.150014 -10.140454 2.536349 -12.752847 23.061548 3.358548 -6.255276 -12.429387 nan nan nan -7.752498 3.043138 2.027419 9.232194 -6.351816 15.566551 2.826424 -0.013496 -9.215460 2.783005 -19.887766 17.148112 6.009288 -19.030734 11.926118 -15.740862 -8.672079 5.560845 -60.785588 -46.247839 31.202459 160.142924 -73.619990 -134.301780 -7.959242 -20.285016 -6.475870 18.114347 3.824269 -2.009392 29.458220 17.163805 -8.823910 -80.733812 46.856731 -62.591916 7.190433 8.272163 -5.603345 
